<?xml version="1.0" encoding="UTF-8"?>
<svg width="20px" height="20px" viewBox="0 0 20 20" version="1.1" xmlns="http://www.w3.org/2000/svg" xmlns:xlink="http://www.w3.org/1999/xlink">
    <!-- Generator: Sketch 49.3 (51167) - http://www.bohemiancoding.com/sketch -->
    <title>Icons/JS</title>
    <desc>Created with Sketch.</desc>
    <defs></defs>
    <g id="Icons/JS" stroke="none" stroke-width="1" fill="none" fill-rule="evenodd">
        <g id="Group">
            <rect id="Mask" x="0" y="0" width="20" height="20"></rect>
        </g>
        <g id="Js" transform="translate(2.000000, 2.000000)" fill="#444444" fill-rule="nonzero">
            <path d="M0,2 L0,14 C1.3527075e-16,15.1045695 0.8954305,16 2,16 L14,16 C15.1045695,16 16,15.1045695 16,14 L16,2 C16,0.8954305 15.1045695,-2.02906125e-16 14,0 L2,0 C0.8954305,2.02906125e-16 -1.3527075e-16,0.8954305 0,2 Z M7.14314928,14.6329243 C6.34151329,14.8169734 5.57515337,14.7121677 5.00460123,14.3696319 C4.62269939,14.1354806 4.32464213,13.7750511 4.12269939,13.3599182 C4.52862986,13.1119632 4.93353783,12.8624744 5.3394683,12.6145194 C5.3502045,12.6191207 5.38190184,12.6768916 5.42484663,12.7515337 C5.5797546,13.0117587 5.71370143,13.1958078 5.97699387,13.3246421 C6.23568507,13.4125767 6.80265849,13.4693252 7.02198364,13.0143149 C7.15593047,12.7832311 7.11298569,12.0245399 7.11298569,11.2019427 C7.11298569,9.90899796 7.11912065,8.63752556 7.11912065,7.32873211 L8.61554192,7.32873211 C8.61554192,8.70296524 8.62321063,10.0807771 8.61554192,11.4529652 C8.61860941,12.2939673 8.69171779,13.0582822 8.35071575,13.6866053 C8.11503067,14.1661554 7.66462168,14.4810838 7.14314928,14.6329243 Z M9.98006135,13.9258691 C9.73517382,13.6492843 9.58179959,13.5046012 9.43558282,13.1850716 C10.051636,12.8307771 10.051636,12.8307771 10.650818,12.4841513 C10.9764826,12.9846626 11.2776074,13.2597137 11.8190184,13.3721881 C12.553681,13.4616564 13.2929448,13.2096115 13.1273006,12.4294479 C12.9570552,11.7919223 11.6232106,11.6370143 10.7152352,10.9555215 C9.79345603,10.3364008 9.57770961,8.83231084 10.3348671,7.97290389 C10.5874233,7.65490798 11.0178937,7.41768916 11.4693252,7.30368098 L11.9406953,7.24284254 C12.8456033,7.22443763 13.4115542,7.46319018 13.8266871,7.92740286 C13.942229,8.04447853 14.0362986,8.17075665 14.2131902,8.44478528 C13.7310838,8.75204499 13.7326176,8.74897751 13.0419223,9.19631902 C12.8941718,8.87832311 12.6497955,8.67893661 12.3911043,8.59253579 C11.9897751,8.4708589 11.4831288,8.60327198 11.3783231,9.02760736 C11.3420245,9.15848671 11.3496933,9.2801636 11.4074642,9.49591002 C11.5700409,9.86707566 12.1160532,10.0281186 12.6058282,10.2530675 C14.0158487,10.8251534 14.49182,11.4376278 14.6088957,12.1676892 C14.7213701,12.7960123 14.5812883,13.2034765 14.5603272,13.2643149 C14.0393661,15.0439673 11.1385481,15.1017382 9.98006135,13.9258691 Z" id="Shape"></path>
        </g>
    </g>
</svg>