<?xml version="1.0" encoding="UTF-8"?>
<svg width="20px" height="20px" viewBox="0 0 20 20" version="1.1" xmlns="http://www.w3.org/2000/svg" xmlns:xlink="http://www.w3.org/1999/xlink">
    <!-- Generator: Sketch 49.3 (51167) - http://www.bohemiancoding.com/sketch -->
    <title>Icons/NPM</title>
    <desc>Created with Sketch.</desc>
    <defs></defs>
    <g id="Icons/NPM" stroke="none" stroke-width="1" fill="none" fill-rule="evenodd">
        <g id="Group">
            <rect id="Mask" x="0" y="0" width="20" height="20"></rect>
        </g>
        <g id="NPM" transform="translate(2.000000, 7.000000)" fill="#313131" fill-rule="nonzero">
            <path d="M0,2.56891065 L0,5.13831089 L4.45700073,5.13831089 L4.45700073,6 L8.01607092,6 L8.01607092,5.13831089 L16,5.13831089 L16,0 L0.000510187813,0 L0.000510187813,2.56940024 L0,2.56891065 Z M4.45649055,2.56891065 L4.45649055,4.27662179 L3.55855999,4.27662179 L3.55855999,1.72288862 L2.69277128,1.72288862 L2.69277128,4.27662179 L0.865278531,4.27662179 L0.865278531,0.86119951 L4.45649055,0.86119951 L4.45649055,2.56891065 Z M8.90736903,2.57184823 L8.89767546,4.27955936 L7.1502822,4.27368421 L7.1502822,5.13831089 L5.32278945,5.13831089 L5.32278945,0.86119951 L8.91400147,0.86119951 L8.90787921,2.57184823 L8.90736903,2.57184823 Z M15.1337011,2.56891065 L15.1337011,4.27662179 L14.2357705,4.27662179 L14.2357705,1.72288862 L13.33784,1.72288862 L13.33784,4.29228886 L12.4399094,4.27368421 L12.4399094,1.72288862 L11.5741207,1.72288862 L11.5741207,4.27662179 L9.77876981,4.27662179 L9.77876981,0.86119951 L15.1331909,0.86119951 L15.1331909,2.56891065 L15.1337011,2.56891065 Z M7.1502822,2.56891065 L7.1502822,3.41493268 L7.98392908,3.41493268 L7.98392908,1.72239902 L7.1502822,1.72239902 L7.1502822,2.56842105 L7.1502822,2.56891065 Z" id="Shape"></path>
        </g>
    </g>
</svg>